<?xml version="1.0" encoding="UTF-8"?>
<svg version="1.1" xmlns="http://www.w3.org/2000/svg" width="2000" height="2000">
<path d="M0 0 C660 0 1320 0 2000 0 C2000 660 2000 1320 2000 2000 C1340 2000 680 2000 0 2000 C0 1340 0 680 0 0 Z " fill="#FEAF00" transform="translate(0,0)"/>
<path d="M0 0 C82.5 0 165 0 250 0 C249.36350741 7.00141852 248.62644322 13.40271942 247.1875 20.1875 C239.94452741 56.51558645 238.2369728 94.00844533 235.55737305 130.87841797 C234.70770125 142.55382654 233.83410069 154.22628972 232.890625 165.89453125 C232.75441994 167.58792885 232.75441994 167.58792885 232.61546326 169.3155365 C232.18582141 174.6522509 231.75105417 179.98845013 231.30688477 185.32397461 C229.34207761 209.34078104 228.7336471 233.38755446 228.60713863 257.47677612 C228.58673384 261.32238895 228.55425825 265.1670167 228.49243164 269.01220703 C228.2306955 285.70886944 228.1038912 301.08449324 234.25221252 316.89978027 C243.38064615 342.53770147 241.3049938 376.71987686 236 403 C235.87141602 403.69287109 235.74283203 404.38574219 235.61035156 405.09960938 C227.39842909 448.77115639 205.42529101 489.86384916 175 522 C174.11610596 522.93489258 174.11610596 522.93489258 173.21435547 523.88867188 C154.57757393 543.43625619 130.12521573 564.29159476 104 573 C191.12 573.495 191.12 573.495 280 574 C280 641.98 280 709.96 280 780 C312.01 780 344.02 780 377 780 C387.1782902 786.22006623 397.2952674 792.41369843 407.2734375 798.9296875 C412.8922009 802.58734471 418.53967446 806.19993853 424.1875 809.8125 C425.25468262 810.49513916 426.32186523 811.17777832 427.42138672 811.88110352 C437.9370479 818.60398396 448.46692933 825.30444109 459 832 C471.57162594 839.9914077 484.13174572 848.00028481 496.67626953 856.03417969 C507.10404167 862.71066447 517.55051269 869.35757254 528 876 C547.03089095 888.09736984 566.05212163 900.21035402 585 912.4375 C585.70616455 912.89213623 586.4123291 913.34677246 587.13989258 913.81518555 C591.88213993 916.88213993 591.88213993 916.88213993 593 918 C593.096937 920.15159726 593.12186783 922.30644111 593.12025452 924.46022034 C593.12110894 925.14302801 593.12196337 925.82583568 593.12284368 926.52933449 C593.12450043 928.83411691 593.11897397 931.13882772 593.11352539 933.44360352 C593.11324353 935.08905028 593.11340122 936.73449716 593.1139679 938.37994385 C593.11425593 942.86115759 593.10835821 947.34234481 593.10139394 951.82355237 C593.09516142 956.50142105 593.09455668 961.17929028 593.09336853 965.85716248 C593.09025491 974.72175168 593.08204111 983.58632862 593.07201904 992.45091242 C593.06085885 1002.54022202 593.05534769 1012.6295322 593.05032361 1022.71884644 C593.03985852 1043.47923934 593.02151267 1064.23961541 593 1085 C575.51 1085 558.02 1085 540 1085 C540 1331.51 540 1578.02 540 1832 C198.78 1832 -142.44 1832 -494 1832 C-494 1585.49 -494 1338.98 -494 1085 C-511.49 1085 -528.98 1085 -547 1085 C-547.22578239 1063.34677378 -547.40996957 1041.69450126 -547.51812172 1020.04039669 C-547.56967461 1009.98589358 -547.63995023 999.93217399 -547.75439453 989.87817383 C-547.85410367 981.11448489 -547.91859031 972.35136337 -547.94088495 963.58712298 C-547.95391702 958.9466439 -547.98451192 954.30778797 -548.05730057 949.66782951 C-548.12529148 945.29821496 -548.14609592 940.93088811 -548.13107681 936.56079483 C-548.13382323 934.95911397 -548.15365658 933.357355 -548.19205475 931.75613213 C-548.46758296 919.67151934 -548.46758296 919.67151934 -544.85068893 915.55201912 C-542.30358148 913.7408113 -539.81146672 912.35410959 -537 911 C-535.53549495 910.07905126 -534.0801459 909.14312551 -532.640625 908.18359375 C-531.17856161 907.26586984 -529.71496556 906.35058402 -528.25 905.4375 C-526.58049609 904.3896942 -524.91123494 903.34150151 -523.2421875 902.29296875 C-522.38206055 901.75333496 -521.52193359 901.21370117 -520.63574219 900.65771484 C-516.20526492 897.87122534 -511.78985605 895.06115204 -507.375 892.25 C-506.00939941 891.38072876 -506.00939941 891.38072876 -504.61621094 890.49389648 C-496.51059129 885.33110384 -488.41727588 880.14914339 -480.32446289 874.96630859 C-469.0021791 867.71703447 -457.65741479 860.5032604 -446.31152344 853.29101562 C-434.63419235 845.86729735 -422.96936172 838.42449723 -411.31713867 830.96142578 C-403.65664227 826.05638869 -395.98507546 821.169032 -388.30859375 816.2890625 C-381.36397666 811.87248588 -374.43045998 807.43875277 -367.5 803 C-359.1920307 797.68038777 -350.88147675 792.3648861 -342.5625 787.0625 C-341.62664062 786.46501953 -340.69078125 785.86753906 -339.7265625 785.25195312 C-338.86933594 784.70603516 -338.01210938 784.16011719 -337.12890625 783.59765625 C-336.00077515 782.87848022 -336.00077515 782.87848022 -334.84985352 782.14477539 C-306.25777877 764.45066974 -267.62421914 780 -234 780 C-234 712.02 -234 644.04 -234 574 C-207.6 573.67 -181.2 573.34 -154 573 C-158.29 564.09 -162.58 555.18 -167 546 C-182.27666465 514.17743831 -182.27666465 514.17743831 -186 500 C-186.30671631 498.84274414 -186.30671631 498.84274414 -186.61962891 497.66210938 C-195.88602785 461.29862434 -185.90782131 425.7862069 -167.36645508 394.0690918 C-164.6239286 389.45183142 -161.82977017 384.86639941 -159.01806641 380.29101562 C-157.13454028 377.21940515 -155.27197503 374.13636744 -153.41796875 371.046875 C-137.72617925 344.95198542 -120.84893516 319.65606872 -103.91960144 294.35603333 C-100.6152755 289.41770552 -97.31604811 284.47608872 -94.02734375 279.52734375 C-86.77745693 268.61919603 -79.47308108 257.75652551 -72 247 C-71.40751465 246.14615723 -70.8150293 245.29231445 -70.20458984 244.41259766 C-66.14246248 238.55982657 -62.07330325 232.71199307 -57.99902344 226.86767578 C-56.70745481 225.01487105 -55.41640269 223.1617061 -54.12597656 221.30810547 C-46.84935877 210.85756002 -39.49194043 200.4727139 -32.015625 190.1640625 C-29.3259978 186.45522601 -26.65807598 182.73148808 -24 179 C-20.01146322 173.40842288 -16.01134504 167.82523948 -12 162.25 C-11.43539062 161.46238281 -10.87078125 160.67476562 -10.2890625 159.86328125 C-9.76054688 159.12980469 -9.23203125 158.39632812 -8.6875 157.640625 C-8.21699219 156.98610352 -7.74648438 156.33158203 -7.26171875 155.65722656 C-6 154 -6 154 -4 152 C-3.77411758 149.03433291 -3.67390881 146.15660985 -3.65625 143.1875 C-3.64235229 142.26035187 -3.62845459 141.33320374 -3.61413574 140.37796021 C-3.58410506 138.33652177 -3.55831699 136.29501778 -3.53613281 134.253479 C-3.47338509 128.60353402 -3.37624387 122.95416781 -3.28125 117.3046875 C-3.26143066 116.08997772 -3.24161133 114.87526794 -3.22119141 113.62374878 C-2.96062656 98.45331583 -2.4782493 83.28981033 -2 68.125 C-1.95757857 66.77506581 -1.91517914 65.42513092 -1.87280273 64.07519531 C-1.8316333 62.76389648 -1.79046387 61.45259766 -1.74804688 60.1015625 C-1.11953673 40.06842015 -0.55654901 20.03576453 0 0 Z " fill="#E2E1DF" transform="translate(977,0)"/>
<path d="M0 0 C82.5 0 165 0 250 0 C249.36350741 7.00141852 248.62644322 13.40271942 247.1875 20.1875 C239.94452741 56.51558645 238.2369728 94.00844533 235.55737305 130.87841797 C234.70770125 142.55382654 233.83410069 154.22628972 232.890625 165.89453125 C232.75441994 167.58792885 232.75441994 167.58792885 232.61546326 169.3155365 C232.18582141 174.6522509 231.75105417 179.98845013 231.30688477 185.32397461 C229.34207761 209.34078104 228.7336471 233.38755446 228.60713863 257.47677612 C228.58673384 261.32238895 228.55425825 265.1670167 228.49243164 269.01220703 C228.2306955 285.70886944 228.1038912 301.08449324 234.25221252 316.89978027 C243.38064615 342.53770147 241.3049938 376.71987686 236 403 C235.87141602 403.69287109 235.74283203 404.38574219 235.61035156 405.09960938 C227.39842909 448.77115639 205.42529101 489.86384916 175 522 C174.11610596 522.93489258 174.11610596 522.93489258 173.21435547 523.88867188 C154.57757393 543.43625619 130.12521573 564.29159476 104 573 C191.12 573.495 191.12 573.495 280 574 C280 641.98 280 709.96 280 780 C312.01 780 344.02 780 377 780 C387.1782902 786.22006623 397.2952674 792.41369843 407.2734375 798.9296875 C412.8922009 802.58734471 418.53967446 806.19993853 424.1875 809.8125 C425.25468262 810.49513916 426.32186523 811.17777832 427.42138672 811.88110352 C437.9370479 818.60398396 448.46692933 825.30444109 459 832 C471.57162594 839.9914077 484.13174572 848.00028481 496.67626953 856.03417969 C507.10404167 862.71066447 517.55051269 869.35757254 528 876 C547.03089095 888.09736984 566.05212163 900.21035402 585 912.4375 C585.70616455 912.89213623 586.4123291 913.34677246 587.13989258 913.81518555 C591.88213993 916.88213993 591.88213993 916.88213993 593 918 C593 973.11 593 1028.22 593 1085 C216.8 1085 -159.4 1085 -547 1085 C-547 1029.89 -547 974.78 -547 918 C-540.79834812 913.65884368 -534.65896656 909.43208191 -528.25 905.4375 C-526.58049609 904.3896942 -524.91123494 903.34150151 -523.2421875 902.29296875 C-522.38206055 901.75333496 -521.52193359 901.21370117 -520.63574219 900.65771484 C-516.20526492 897.87122534 -511.78985605 895.06115204 -507.375 892.25 C-506.00939941 891.38072876 -506.00939941 891.38072876 -504.61621094 890.49389648 C-496.51059129 885.33110384 -488.41727588 880.14914339 -480.32446289 874.96630859 C-469.0021791 867.71703447 -457.65741479 860.5032604 -446.31152344 853.29101562 C-434.63419235 845.86729735 -422.96936172 838.42449723 -411.31713867 830.96142578 C-403.65664227 826.05638869 -395.98507546 821.169032 -388.30859375 816.2890625 C-381.36397666 811.87248588 -374.43045998 807.43875277 -367.5 803 C-359.1920307 797.68038777 -350.88147675 792.3648861 -342.5625 787.0625 C-341.62664062 786.46501953 -340.69078125 785.86753906 -339.7265625 785.25195312 C-338.86933594 784.70603516 -338.01210938 784.16011719 -337.12890625 783.59765625 C-336.00077515 782.87848022 -336.00077515 782.87848022 -334.84985352 782.14477539 C-306.25777877 764.45066974 -267.62421914 780 -234 780 C-234 712.02 -234 644.04 -234 574 C-207.6 573.67 -181.2 573.34 -154 573 C-158.29 564.09 -162.58 555.18 -167 546 C-182.27666465 514.17743831 -182.27666465 514.17743831 -186 500 C-186.30671631 498.84274414 -186.30671631 498.84274414 -186.61962891 497.66210938 C-195.88602785 461.29862434 -185.90782131 425.7862069 -167.36645508 394.0690918 C-164.6239286 389.45183142 -161.82977017 384.86639941 -159.01806641 380.29101562 C-157.13454028 377.21940515 -155.27197503 374.13636744 -153.41796875 371.046875 C-137.72617925 344.95198542 -120.84893516 319.65606872 -103.91960144 294.35603333 C-100.6152755 289.41770552 -97.31604811 284.47608872 -94.02734375 279.52734375 C-86.77745693 268.61919603 -79.47308108 257.75652551 -72 247 C-71.40751465 246.14615723 -70.8150293 245.29231445 -70.20458984 244.41259766 C-66.14246248 238.55982657 -62.07330325 232.71199307 -57.99902344 226.86767578 C-56.70745481 225.01487105 -55.41640269 223.1617061 -54.12597656 221.30810547 C-46.84935877 210.85756002 -39.49194043 200.4727139 -32.015625 190.1640625 C-29.3259978 186.45522601 -26.65807598 182.73148808 -24 179 C-20.01146322 173.40842288 -16.01134504 167.82523948 -12 162.25 C-11.43539062 161.46238281 -10.87078125 160.67476562 -10.2890625 159.86328125 C-9.76054688 159.12980469 -9.23203125 158.39632812 -8.6875 157.640625 C-8.21699219 156.98610352 -7.74648438 156.33158203 -7.26171875 155.65722656 C-6 154 -6 154 -4 152 C-3.77411758 149.03433291 -3.67390881 146.15660985 -3.65625 143.1875 C-3.64235229 142.26035187 -3.62845459 141.33320374 -3.61413574 140.37796021 C-3.58410506 138.33652177 -3.55831699 136.29501778 -3.53613281 134.253479 C-3.47338509 128.60353402 -3.37624387 122.95416781 -3.28125 117.3046875 C-3.26143066 116.08997772 -3.24161133 114.87526794 -3.22119141 113.62374878 C-2.96062656 98.45331583 -2.4782493 83.28981033 -2 68.125 C-1.95757857 66.77506581 -1.91517914 65.42513092 -1.87280273 64.07519531 C-1.8316333 62.76389648 -1.79046387 61.45259766 -1.74804688 60.1015625 C-1.11953673 40.06842015 -0.55654901 20.03576453 0 0 Z " fill="#FEC099" transform="translate(977,0)"/>
<path d="M0 0 C234.3 0 468.6 0 710 0 C710 179.19 710 358.38 710 543 C475.7 543 241.4 543 0 543 C0 363.81 0 184.62 0 0 Z " fill="#FEDA98" transform="translate(645,1085)"/>
<path d="M0 0 C0.9463884 -0.00014603 1.89277679 -0.00029205 2.86784363 -0.0004425 C6.00615709 0.00025597 9.14441171 0.00804537 12.28271484 0.01586914 C14.45462003 0.01773355 16.62652564 0.01915734 18.7984314 0.02015686 C24.52279821 0.02398023 30.24713977 0.033809 35.97149658 0.04486084 C42.83554563 0.05687444 49.69960312 0.06147806 56.56365967 0.06731415 C66.99867481 0.07702083 77.4336345 0.09617867 87.86865234 0.11352539 C87.86865234 28.16352539 87.86865234 56.21352539 87.86865234 85.11352539 C257.48865234 85.11352539 427.10865234 85.11352539 601.86865234 85.11352539 C601.86865234 57.06352539 601.86865234 29.01352539 601.86865234 0.11352539 C625.35458848 -0.32767151 625.35458848 -0.32767151 635.47021484 -0.42358398 C642.33706741 -0.48900462 649.20228638 -0.56585399 656.06787109 -0.71630859 C661.6118299 -0.83702159 667.15403442 -0.90184515 672.69920731 -0.93012428 C674.80025437 -0.95023998 676.90121998 -0.98951636 679.00150681 -1.04950523 C693.64307203 -1.45055248 703.05517327 0.91144556 714.89510536 9.67738724 C718.14051867 12.03905479 721.54040342 14.15610678 724.93115234 16.30102539 C726.33575496 17.21361696 727.73961143 18.12736019 729.14208984 19.04321289 C734.76085325 22.7008701 740.40832681 26.31346392 746.05615234 29.92602539 C747.12333496 30.60866455 748.19051758 31.29130371 749.29003906 31.99462891 C759.80570025 38.71750935 770.33558167 45.41796648 780.86865234 52.11352539 C793.44027828 60.10493309 806.00039807 68.1138102 818.54492188 76.14770508 C828.97269402 82.82418986 839.41916503 89.47109793 849.86865234 96.11352539 C868.8995433 108.21089523 887.92077398 120.32387941 906.86865234 132.55102539 C907.57481689 133.00566162 908.28098145 133.46029785 909.00854492 133.92871094 C913.75079227 136.99566532 913.75079227 136.99566532 914.86865234 138.11352539 C914.86865234 193.22352539 914.86865234 248.33352539 914.86865234 305.11352539 C538.66865234 305.11352539 162.46865234 305.11352539 -225.13134766 305.11352539 C-225.13134766 250.00352539 -225.13134766 194.89352539 -225.13134766 138.11352539 C-218.92969578 133.77236907 -212.79031422 129.5456073 -206.38134766 125.55102539 C-204.71184374 124.50321959 -203.0425826 123.4550269 -201.37353516 122.40649414 C-200.5134082 121.86686035 -199.65328125 121.32722656 -198.76708984 120.77124023 C-194.33661257 117.98475073 -189.9212037 115.17467743 -185.50634766 112.36352539 C-184.59594727 111.78401123 -183.68554688 111.20449707 -182.74755859 110.60742188 C-174.64193894 105.44462923 -166.54862353 100.26266878 -158.45581055 95.07983398 C-147.13352676 87.83055986 -135.78876245 80.61678579 -124.44287109 73.40454102 C-112.76554001 65.98082274 -101.10070937 58.53802262 -89.44848633 51.07495117 C-81.78798992 46.16991408 -74.11642311 41.28255739 -66.43994141 36.40258789 C-59.49532432 31.98601127 -52.56180763 27.55227816 -45.63134766 23.11352539 C-37.32337835 17.79391316 -29.0128244 12.47841149 -20.69384766 7.17602539 C-19.75798828 6.57854492 -18.82212891 5.98106445 -17.85791016 5.36547852 C-17.00068359 4.81956055 -16.14345703 4.27364258 -15.26025391 3.71118164 C-14.5081665 3.23173096 -13.7560791 2.75228027 -12.98120117 2.25830078 C-8.73391073 -0.37012008 -4.87451981 -0.01947615 0 0 Z " fill="#66BAE6" transform="translate(655.13134765625,779.886474609375)"/>
<path d="M0 0 C169.62 0 339.24 0 514 0 C514 114.18 514 228.36 514 346 C344.38 346 174.76 346 0 346 C0 231.82 0 117.64 0 0 Z " fill="#D2D1D6" transform="translate(743,1085)"/>
<path d="M0 0 C1.80440604 0.00215133 3.60881795 0.00119804 5.41322136 -0.0025568 C10.18625289 -0.00411822 14.95802175 0.03604356 19.73075867 0.08571625 C24.23175434 0.12598914 28.73246408 0.12747981 33.23364258 0.13244629 C46.34196002 0.16897817 59.45004933 0.26670714 72.55810547 0.35717773 C116.55123047 0.57374023 116.55123047 0.57374023 161.43310547 0.79467773 C161.43310547 96.82467773 161.43310547 192.85467773 161.43310547 291.79467773 C-8.18689453 291.79467773 -177.80689453 291.79467773 -352.56689453 291.79467773 C-352.56689453 196.09467773 -352.56689453 100.39467773 -352.56689453 1.79467773 C-292.17689453 1.79467773 -231.78689453 1.79467773 -169.56689453 1.79467773 C-167.67199882 6.84773295 -165.86576404 11.81702342 -164.21142578 16.93920898 C-163.75800968 18.33076338 -163.30395825 19.72211088 -162.84936523 21.11328125 C-162.61093903 21.8431424 -162.37251282 22.57300354 -162.12686157 23.32498169 C-157.22100009 38.30375275 -151.92986777 53.10574711 -146.37939453 67.85717773 C-137.38618316 91.81106834 -128.61231261 115.63446328 -123.56689453 140.79467773 C-123.37093689 141.74213867 -123.37093689 141.74213867 -123.17102051 142.70874023 C-120.37115055 156.50992008 -120.10986195 170.03738064 -120.05566406 184.0793457 C-120.02081581 199.66240144 -120.02081581 199.66240144 -116.56689453 214.79467773 C-116.19048828 215.94323242 -115.81408203 217.09178711 -115.42626953 218.27514648 C-110.91065156 229.29389033 -105.46619973 236.60373758 -94.56689453 241.79467773 C-84.10636776 246.14612036 -70.78769471 248.22342464 -59.96923828 244.01733398 C-37.40670916 232.53429071 -24.20770172 212.34538122 -16.44189453 188.91967773 C1.1294494 132.26389107 -16.12970715 65.28853557 -35.95947266 11.67285156 C-36.56689453 9.79467773 -36.56689453 9.79467773 -36.56689453 7.79467773 C-24.04861469 2.0655239 -13.70837056 -0.21802005 0 0 Z " fill="#FAFAFA" transform="translate(1095.56689453125,573.205322265625)"/>
<path d="M0 0 C1.56289746 -0.0110577 1.56289746 -0.0110577 3.1573686 -0.02233878 C4.89894173 -0.02697368 4.89894173 -0.02697368 6.67569816 -0.03170222 C7.9014941 -0.03884799 9.12729004 -0.04599377 10.39023131 -0.05335608 C13.82352119 -0.07227486 17.25677675 -0.08664097 20.69009278 -0.09908157 C24.41381209 -0.11359511 28.13750209 -0.13368503 31.86119914 -0.15297592 C39.2608948 -0.19031078 46.66060532 -0.22187625 54.06033532 -0.25153345 C60.21492059 -0.27631292 66.36949249 -0.30335528 72.52406204 -0.33176345 C140.35821279 -0.64401262 208.19282679 -0.82578417 276.0275344 -0.96446888 C285.85559936 -0.98464517 295.68366263 -1.005605 305.51172531 -1.02686042 C307.14072712 -1.03035886 307.14072712 -1.03035886 308.80263806 -1.03392798 C344.00078188 -1.10999526 379.19824541 -1.25359676 414.39600062 -1.43326564 C450.5710863 -1.61758753 486.74579968 -1.73651267 522.92135245 -1.77217996 C528.0316968 -1.77724267 533.14204007 -1.7830379 538.25238311 -1.78927153 C539.76104667 -1.79107447 539.76104667 -1.79107447 541.30018828 -1.79291384 C557.48513687 -1.81414733 573.66901037 -1.90399688 589.85353112 -2.01939003 C606.12716411 -2.13391021 622.39969088 -2.17528455 638.67370476 -2.1423289 C648.34131836 -2.12495084 658.00495847 -2.16318157 667.67188251 -2.28160222 C674.13493921 -2.35525349 680.59537622 -2.35580202 687.05858387 -2.29774859 C690.73996169 -2.2667479 694.41383267 -2.26671142 698.09442271 -2.35613058 C719.2183597 -2.83925213 719.2183597 -2.83925213 725.80586025 2.07080217 C730.34711825 6.69297809 733.62225943 11.8831598 736.72391604 17.54042903 C739.21361298 21.86373728 742.26399274 25.75126338 745.28760421 29.70971185 C746.44811642 31.28174968 747.60602579 32.85571538 748.76026046 34.4323681 C752.24400621 39.17399666 755.73400567 43.91099537 759.22510421 48.64721185 C762.75083358 53.43068638 766.27549348 58.21493138 769.79541671 63.0026806 C775.24147317 70.40740648 780.69968188 77.80145551 786.22510421 85.14721185 C791.74051879 92.4796634 797.18954683 99.85974558 802.62354171 107.2526806 C805.07971601 110.59412626 807.54393682 113.92942552 810.01416671 117.2604931 C810.9464006 118.51962518 810.9464006 118.51962518 811.89746749 119.80419427 C813.07388525 121.39281398 814.25182494 122.98030837 815.43164718 124.5664013 C819.20674741 129.67061153 822.69405099 134.85063202 826.22510421 140.14721185 C518.00510421 140.14721185 209.78510421 140.14721185 -107.77489579 140.14721185 C-103.72149061 134.06710409 -99.62905019 128.12571527 -95.27489579 122.27221185 C-94.03783443 120.60169979 -92.8008577 118.93112507 -91.56395829 117.2604931 C-90.93650712 116.4143847 -90.30905594 115.5682763 -89.6625911 114.69652826 C-87.23591171 111.41931846 -84.8208599 108.13363877 -82.40575516 104.84789544 C-77.0785034 97.60218121 -71.71513136 90.38554635 -66.30907547 83.19848138 C-60.67180493 75.69514405 -55.116183 68.13190644 -49.55712235 60.57055169 C-46.63258833 56.59398666 -43.70354145 52.62074914 -40.77489579 48.64721185 C-39.60820691 47.06389489 -38.44154025 45.48056154 -37.27489579 43.89721185 C-34.94156245 40.73054518 -32.60822912 37.56387852 -30.27489579 34.39721185 C-29.69634842 33.61201165 -29.11780106 32.82681146 -28.52172196 32.01781732 C-27.36574596 30.44905045 -26.20966038 28.88036432 -25.05346024 27.31176263 C-21.97228015 23.13124953 -18.89352202 18.94897759 -15.81786454 14.76439935 C-14.85010087 13.4485888 -14.85010087 13.4485888 -13.86278641 12.10619622 C-12.61730163 10.41269534 -11.37248546 8.71870247 -10.12841141 7.02416497 C-9.29406571 5.89011224 -9.29406571 5.89011224 -8.44286454 4.73314935 C-7.95068436 4.06332025 -7.45850419 3.39349115 -6.95140946 2.70336419 C-4.73320206 -0.23061671 -3.70427361 0.017679 0 0 Z " fill="#FED8B0" transform="translate(640.7748957872391,1659.8527881503105)"/>
<path d="M0 0 C2.15616238 0.01494832 4.3123522 0.02632307 6.46855164 0.03430176 C12.10310853 0.06463168 17.73597665 0.14302792 23.36987305 0.23193359 C30.15124366 0.32874869 36.93318368 0.3649949 43.71504974 0.41156006 C53.98177526 0.48875098 64.24480639 0.64216859 74.51171875 0.78125 C74.51171875 28.83125 74.51171875 56.88125 74.51171875 85.78125 C244.13171875 85.78125 413.75171875 85.78125 588.51171875 85.78125 C588.51171875 57.73125 588.51171875 29.68125 588.51171875 0.78125 C611.99765488 0.3400531 611.99765488 0.3400531 622.11328125 0.24414062 C628.98013381 0.17871999 635.84535279 0.10187062 642.7109375 -0.04858398 C648.25489631 -0.16929698 653.79710082 -0.23412054 659.34227371 -0.26239967 C661.44332078 -0.28251537 663.54428638 -0.32179175 665.64457321 -0.38178062 C680.28613843 -0.78282787 689.69823968 1.57917017 701.53817177 10.34511185 C704.78358508 12.7067794 708.18346982 14.82383139 711.57421875 16.96875 C712.97882136 17.88134157 714.38267783 18.7950848 715.78515625 19.7109375 C721.40391965 23.36859471 727.05139321 26.98118853 732.69921875 30.59375 C733.76640137 31.27638916 734.83358398 31.95902832 735.93310547 32.66235352 C746.44876665 39.38523396 756.97864808 46.08569109 767.51171875 52.78125 C780.08334469 60.7726577 792.64346447 68.78153481 805.18798828 76.81542969 C815.61576042 83.49191447 826.06223144 90.13882254 836.51171875 96.78125 C840.11615971 99.07248562 843.72036349 101.36409325 847.32421875 103.65625 C848.21987549 104.22585449 849.11553223 104.79545898 850.03833008 105.38232422 C854.99416203 108.53607545 859.9450264 111.69741008 864.890625 114.8671875 C865.96473633 115.55554688 867.03884766 116.24390625 868.14550781 116.953125 C870.28471212 118.32469076 872.42339519 119.69706987 874.56152344 121.0703125 C879.23458411 124.06673386 883.91465823 127.04555801 888.6484375 129.9453125 C889.40592285 130.4103418 890.1634082 130.87537109 890.94384766 131.35449219 C892.32366024 132.19762314 893.70724319 133.03462702 895.09521484 133.86425781 C896.60084043 134.78393012 898.06261521 135.77486811 899.51171875 136.78125 C899.51171875 137.44125 899.51171875 138.10125 899.51171875 138.78125 C524.96171875 138.78125 150.41171875 138.78125 -235.48828125 138.78125 C-233.23977906 134.28424562 -233.23977906 134.28424562 -229.953125 132.37109375 C-229.23568115 131.94481689 -228.5182373 131.51854004 -227.77905273 131.0793457 C-227.00247314 130.63034912 -226.22589355 130.18135254 -225.42578125 129.71875 C-223.76839799 128.73367504 -222.11217227 127.74665027 -220.45703125 126.7578125 C-219.61914062 126.25926758 -218.78125 125.76072266 -217.91796875 125.24707031 C-214.36949413 123.10629041 -210.89445468 120.8608457 -207.42578125 118.59375 C-206.02231313 117.67941466 -204.61865947 116.76536407 -203.21484375 115.8515625 C-202.09577637 115.12308105 -202.09577637 115.12308105 -200.95410156 114.37988281 C-196.08309818 111.22192933 -191.19105133 108.09675053 -186.30078125 104.96875 C-185.23359863 104.28611084 -184.16641602 103.60347168 -183.06689453 102.90014648 C-171.65655393 95.60527892 -160.22903445 88.33748614 -148.79980469 81.07226562 C-138.18573252 74.32450101 -127.57979591 67.56437837 -116.98828125 60.78125 C-104.60830379 52.85273561 -92.20652226 44.95884599 -79.79980469 37.07226562 C-77.09160529 35.35056148 -74.38363334 33.62850033 -71.67578125 31.90625 C-70.7822998 31.3380957 -69.88881836 30.76994141 -68.96826172 30.18457031 C-63.97442478 27.00691629 -58.98629368 23.82057984 -54.00390625 20.625 C-52.35998901 19.57094971 -52.35998901 19.57094971 -50.68286133 18.49560547 C-48.58825704 17.15195631 -46.49429104 15.80731134 -44.40112305 14.46142578 C-42.48602019 13.23290514 -40.56207604 12.01802068 -38.62815857 10.81933594 C-35.50643052 8.86380532 -35.50643052 8.86380532 -32.85263062 6.68869019 C-22.55482143 -0.93175742 -12.4016596 -0.25431214 0 0 Z " fill="#68CAF4" transform="translate(668.48828125,779.21875)"/>
<path d="M0 0 C84.81 0 169.62 0 257 0 C257 107.25 257 214.5 257 325 C172.19 325 87.38 325 0 325 C0 217.75 0 110.5 0 0 Z " fill="#D9D8D8" transform="translate(743,1106)"/>
<path d="M0 0 C32.34 0 64.68 0 98 0 C98 114.18 98 228.36 98 346 C178.85 346 259.7 346 343 346 C341.35 347.65 339.7 349.3 338 351 C336.9110181 352.10896886 335.82355829 353.21943642 334.73828125 354.33203125 C333.59641694 355.49224929 332.45448901 356.65240471 331.3125 357.8125 C330.73177734 358.40998047 330.15105469 359.00746094 329.55273438 359.62304688 C328.07274424 361.12014673 326.54017218 362.56488731 325 364 C324.34 364 323.68 364 323 364 C322.62875 364.86625 322.62875 364.86625 322.25 365.75 C320.81700012 368.32939979 319.21575324 370.06121592 317 372 C316.34 372 315.68 372 315 372 C315 372.66 315 373.32 315 374 C313.4609375 375.515625 313.4609375 375.515625 311.375 377.25 C308.65952241 379.54660073 306.08737736 381.87150775 303.625 384.4375 C301 387 301 387 299 387 C298.75894531 387.57878906 298.51789063 388.15757812 298.26953125 388.75390625 C296.75297964 391.43703602 295.03252549 392.93789562 292.6875 394.9375 C287.85209791 399.17110097 283.30842138 403.62069413 278.8190918 408.21850586 C276.06813823 411.01378058 273.26297714 413.66594797 270.28125 416.21484375 C264.42376515 421.27517269 259.09009765 426.88039382 253.68359375 432.41235352 C252.29600999 433.82994803 250.90201582 435.24125905 249.5078125 436.65234375 C248.68941895 437.48757568 247.87102539 438.32280762 247.02783203 439.18334961 C245 441 245 441 243 441 C242.67 441.99 242.34 442.98 242 444 C240.46875 445.5078125 240.46875 445.5078125 238.5 447.125 C235.34893765 449.79214921 232.39410589 452.55564922 229.5 455.5 C226.85269566 458.18326093 224.18903057 460.75256901 221.3125 463.1875 C215.38044178 468.26697495 209.98341981 473.93356606 204.4987793 479.48535156 C204.00418213 479.98518555 203.50958496 480.48501953 203 481 C202.22426636 481.83869629 202.22426636 481.83869629 201.43286133 482.69433594 C200 484 200 484 198 484 C198 484.66 198 485.32 198 486 C196.77734375 487.19921875 196.77734375 487.19921875 194.9375 488.6875 C190.5517613 492.40091512 186.53524054 496.415932 182.5 500.5 C178.07891705 504.96545069 173.65901699 509.32669187 168.84375 513.37109375 C165.68346876 516.16312188 162.79905911 519.23408291 159.8828125 522.27734375 C158 524 158 524 156 524 C155.34 525.32 154.68 526.64 154 528 C116.31774298 563.17010655 51.54501808 542 0 542 C0 363.14 0 184.28 0 0 Z " fill="#FED481" transform="translate(645,1085)"/>
<path d="M0 0 C8.99761011 0 8.99761011 0 12.07788086 0.45556641 C12.78202118 0.55656647 13.4861615 0.65756653 14.2116394 0.7616272 C14.95519684 0.87380585 15.69875427 0.9859845 16.46484375 1.1015625 C18.1426534 1.34379231 19.82046946 1.58597766 21.49829102 1.828125 C22.38122833 1.95767578 23.26416565 2.08722656 24.17385864 2.22070312 C46.30566486 5.45839533 68.4869513 8.22236411 90.69470215 10.87962341 C96.74318209 11.60417722 102.78953391 12.3436176 108.834198 13.09933472 C192.11788081 23.51142508 275.7424518 30.29198397 425.72949219 37.78955078 C430.07476617 37.93088775 434.4186888 38.09304285 438.76269531 38.26904297 C482.58040841 40.03854807 526.39263613 40.19004202 570.23910046 40.18744946 C572.48082448 40.18749957 574.72254767 40.18809391 576.96427155 40.18888092 C631.56039345 40.20715053 686.0168942 39.22428272 740.5625 36.75 C741.77944172 36.69525261 742.99638344 36.64050522 744.25020218 36.58409882 C784.7945764 34.76003858 825.26646384 32.55364189 865.71268463 29.19005585 C868.12176772 28.98988217 870.5309394 28.7907997 872.94012451 28.59185791 C919.00818171 24.78337129 965.05933901 20.77508168 1011 15.625 C1011.89982605 15.52461426 1012.7996521 15.42422852 1013.72674561 15.32080078 C1045.73697324 11.74058704 1077.69739602 7.75496932 1109.56640625 3.078125 C1112.0441193 2.71770672 1114.5219841 2.35833015 1117 2 C1117.98428986 1.85606812 1117.98428986 1.85606812 1118.98846436 1.70922852 C1120.9797397 1.42002191 1122.97228961 1.13963554 1124.96484375 0.859375 C1126.70495728 0.6113916 1126.70495728 0.6113916 1128.48022461 0.35839844 C1132.30224509 -0.03077587 1136.15821693 0 1140 0 C1140 27.39 1140 54.78 1140 83 C763.8 83 387.6 83 0 83 C0 55.61 0 28.22 0 0 Z " fill="#3D95B9" transform="translate(430,1002)"/>
<path d="M0 0 C32.34 0 64.68 0 98 0 C98.17631156 48.16323226 98.32404446 96.32616059 98.40852264 144.48962313 C98.41852848 150.17366534 98.42888304 155.85770686 98.43945312 161.54174805 C98.44155161 162.67335487 98.44365009 163.8049617 98.44581217 164.97085964 C98.48063799 183.30207288 98.54372296 201.63308575 98.61722237 219.96418006 C98.69199222 238.76873772 98.73646127 257.57319031 98.75270796 276.37789053 C98.76369382 287.9847595 98.79841071 299.59106215 98.86333174 311.19775682 C98.90556732 319.15318144 98.9184127 327.10831259 98.90801102 335.06384123 C98.90287859 339.65637636 98.91083315 344.24792085 98.9536438 348.84028053 C98.9925524 353.04471797 98.99456011 357.24749806 98.96719116 361.45201152 C98.96380843 362.97302072 98.97398138 364.49413297 98.99906546 366.01493908 C99.17502938 377.34181047 99.17502938 377.34181047 96.26012325 381.4552964 C93.30171452 384.13812832 90.79193123 385.73602292 87 387 C86.5978125 387.86625 86.5978125 387.86625 86.1875 388.75 C84.81640611 391.3478621 83.04024793 392.78136419 80.73046875 394.55859375 C78.33317176 396.55543932 76.18236021 398.77506704 74 401 C70.94246575 404.10910449 67.87874893 407.2119913 64.8125 410.3125 C63.99330078 411.14845703 63.17410156 411.98441406 62.33007812 412.84570312 C61.54697266 413.63525391 60.76386719 414.42480469 59.95703125 415.23828125 C58.88932495 416.321698 58.88932495 416.321698 57.80004883 417.42700195 C56 419 56 419 54 419 C53.67 419.99 53.34 420.98 53 422 C51.6796875 423.296875 51.6796875 423.296875 49.875 424.75 C44.8314879 429.01058423 40.25002388 433.69461616 35.63232422 438.40527344 C32.52922419 441.55011921 29.38776198 444.57740341 26.0390625 447.4609375 C21.76816736 451.14331531 17.82245235 455.10148883 13.875 459.125 C9.41375226 463.67122389 4.94700234 467.98598494 0 472 C-2.45012887 474.39179247 -4.8346934 476.82524731 -7.1875 479.3125 C-9 481 -9 481 -11 481 C-11.26482178 481.59530518 -11.52964355 482.19061035 -11.80249023 482.80395508 C-13.04156119 485.0762167 -14.25229714 486.40706174 -16.16015625 488.13671875 C-16.78462646 488.70962646 -17.40909668 489.28253418 -18.05249023 489.87280273 C-18.71579346 490.47165283 -19.37909668 491.07050293 -20.0625 491.6875 C-21.43086997 492.94141916 -22.79806143 494.19662562 -24.1640625 495.453125 C-24.82567383 496.06091797 -25.48728516 496.66871094 -26.16894531 497.29492188 C-28.48506061 499.45168844 -30.71934101 501.68042594 -32.9375 503.9375 C-36.14152654 507.18943721 -39.47415513 510.19782315 -42.9453125 513.16015625 C-46.16234099 516.04080344 -49.13056038 519.16063705 -52.1171875 522.27734375 C-54 524 -54 524 -56 524 C-56.2829917 524.58977064 -56.56598341 525.17954128 -56.85755062 525.78718376 C-60.48751624 532.81808334 -65.81906249 538.55740508 -73 542 C-83.26626777 544.39400268 -94.13997296 543.68122721 -104.60834384 543.41951513 C-108.74394438 543.33119509 -112.87973042 543.32371149 -117.01612854 543.30715942 C-124.82618569 543.26387437 -132.63345542 543.1493181 -140.44229227 543.00826657 C-149.3417119 542.85105182 -158.2412742 542.77462748 -167.14173973 542.70453048 C-185.42939904 542.55871658 -203.71447442 542.31293339 -222 542 C-221.06216762 540.89617226 -220.1229236 539.79354379 -219.18310547 538.69140625 C-218.66021942 538.07724854 -218.13733337 537.46309082 -217.59860229 536.83032227 C-215.21895683 534.10574337 -212.69377512 531.54516583 -210.125 529 C-209.60252686 528.47946045 -209.08005371 527.9589209 -208.54174805 527.42260742 C-205.11914962 524.03797342 -201.59230426 520.82699182 -197.92578125 517.70703125 C-194.963937 515.08162367 -192.22372375 512.24599217 -189.46875 509.40625 C-187.4649388 507.4531682 -185.43326278 505.63301521 -183.3125 503.8125 C-178.46875516 499.60977265 -173.99618776 495.06835771 -169.5 490.5 C-164.46058161 485.37969207 -159.39908247 480.40458376 -153.94726562 475.72460938 C-150.47120704 472.64601385 -147.25009634 469.31357479 -144 466 C-140.11716293 462.04132627 -136.23659338 458.14941662 -132.03125 454.53125 C-127.62796818 450.73857952 -123.57013076 446.64426794 -119.5 442.5 C-114.79544471 437.70975153 -110.03735488 433.10594288 -104.94628906 428.72802734 C-101.01638547 425.23883296 -97.41221992 421.41154199 -93.76171875 417.63476562 C-93.17261719 417.03470703 -92.58351563 416.43464844 -91.9765625 415.81640625 C-91.45143066 415.27443604 -90.92629883 414.73246582 -90.38525391 414.17407227 C-89 413 -89 413 -87 413 C-87 412.34 -87 411.68 -87 411 C-85.57958984 409.60522461 -85.57958984 409.60522461 -83.5859375 407.96484375 C-77.76272286 403.01549627 -72.51266052 397.52639476 -67.18359375 392.05664062 C-66.02923828 390.88584961 -66.02923828 390.88584961 -64.8515625 389.69140625 C-64.15885254 388.98185791 -63.46614258 388.27230957 -62.75244141 387.54125977 C-61 386 -61 386 -59 386 C-58.67 385.01 -58.34 384.02 -58 383 C-56.609375 381.6328125 -56.609375 381.6328125 -54.75 380.125 C-49.99945703 376.12590655 -45.70129165 371.73251461 -41.39355469 367.26806641 C-39.96501727 365.80925253 -38.48626631 364.3999534 -37 363 C-36.34 363 -35.68 363 -35 363 C-35 362.34 -35 361.68 -35 361 C-33.64453125 359.66796875 -33.64453125 359.66796875 -31.8125 358.1875 C-28.69784884 355.60660962 -25.82451082 352.90084895 -23 350 C-21.68 348.68 -20.36 347.36 -19 346 C-12.73 346 -6.46 346 0 346 C0 231.82 0 117.64 0 0 Z " fill="#FED581" transform="translate(1257,1085)"/>
<path d="M0 0 C31.02 0 62.04 0 94 0 C94 224.4 94 448.8 94 680 C88.37641723 674.37641723 88.37641723 674.37641723 85.94140625 671.0234375 C85.39806641 670.28029297 84.85472656 669.53714844 84.29492188 668.77148438 C83.72322266 667.98064453 83.15152344 667.18980469 82.5625 666.375 C81.3139169 664.66397871 80.06521569 662.9530436 78.81640625 661.2421875 C78.18234863 660.37045898 77.54829102 659.49873047 76.89501953 658.60058594 C73.94679986 654.55466531 70.97284817 650.52783803 68 646.5 C66.83319435 644.91676909 65.66652805 643.33343546 64.5 641.75 C63.9225 640.96625 63.345 640.1825 62.75 639.375 C51.66666667 624.33333333 40.58333333 609.29166667 29.5 594.25 C28.9217749 593.4652832 28.3435498 592.68056641 27.74780273 591.87207031 C26.58839358 590.29855175 25.42905046 588.72498454 24.26977539 587.15136719 C21.24262576 583.04245361 18.21412149 578.93454784 15.18359375 574.828125 C14.55646484 573.97798828 13.92933594 573.12785156 13.28320312 572.25195312 C12.09092326 570.63575153 10.89824319 569.01984507 9.70507812 567.40429688 C9.16173828 566.66759766 8.61839844 565.93089844 8.05859375 565.171875 C7.35174438 564.2142627 7.35174438 564.2142627 6.63061523 563.23730469 C5.82346069 562.12983887 5.82346069 562.12983887 5 561 C4.15405787 559.9950686 3.30811574 558.9901372 2.43653899 557.95475334 C-0.67594172 553.56055356 -0.69454473 549.74196526 -0.61523914 544.48664188 C-0.62100836 543.54320595 -0.62677759 542.59977002 -0.63272163 541.62774512 C-0.64597732 538.46013186 -0.62350986 535.29378435 -0.60127258 532.12623596 C-0.60345266 529.83505215 -0.60783001 527.54386954 -0.61421841 525.25269359 C-0.62541363 518.95187787 -0.60537771 512.65148604 -0.58032811 506.35072434 C-0.55852614 500.25546098 -0.56512929 494.16019414 -0.56873732 488.06490368 C-0.57530496 475.59699486 -0.55860697 463.12921859 -0.52865028 450.66134834 C-0.49906537 438.31656806 -0.47982061 425.97184299 -0.47438622 413.62702751 C-0.47404252 412.85947257 -0.47369882 412.09191763 -0.47334471 411.30110346 C-0.47165304 407.40308133 -0.47014612 403.50505916 -0.46871033 399.60703694 C-0.4582082 371.99718301 -0.42452126 344.3874012 -0.37719727 316.77758789 C-0.33127566 289.95500065 -0.29585733 263.13243313 -0.2746582 236.30981445 C-0.27400057 235.48302816 -0.27334294 234.65624187 -0.27266538 233.80440145 C-0.26607278 225.50147537 -0.25969371 217.19854915 -0.25347109 208.89562279 C-0.24079001 191.9815972 -0.22668375 175.06757291 -0.2117157 158.15354919 C-0.21102925 157.37586936 -0.2103428 156.59818953 -0.20963555 155.79694364 C-0.16363204 103.86459718 -0.08326447 51.9322982 0 0 Z " fill="#FEDF9F" transform="translate(1389,1085)"/>
<path d="M0 0 C31.02 0 62.04 0 94 0 C94.23681747 52.5483549 94.46265242 105.09669132 94.59280396 157.64543152 C94.59473675 158.42380303 94.59666955 159.20217455 94.59866092 160.00413308 C94.64056663 176.92232744 94.67934846 193.84052763 94.71491461 210.75873648 C94.73237654 219.0560372 94.7505284 227.35333634 94.76904297 235.65063477 C94.7708736 236.4762932 94.77270422 237.30195163 94.77459032 238.15263001 C94.83419491 264.890049 94.93931194 291.62705237 95.06816109 318.36421982 C95.20038581 345.85192386 95.28643499 373.33939812 95.31480986 400.8274148 C95.31884372 404.71444399 95.32340263 408.60147239 95.3282814 412.4885006 C95.32969729 413.63597709 95.32969729 413.63597709 95.33114177 414.80663493 C95.34765317 427.09561084 95.41249574 439.38387395 95.49564848 451.67255976 C95.57831013 464.0423648 95.60949265 476.4114669 95.58901928 488.78153817 C95.57934112 495.47825692 95.59361464 502.17264236 95.66887665 508.86911774 C95.73739092 515.01029921 95.74021216 521.14801312 95.69258453 527.28935977 C95.6867055 529.50105903 95.70415288 531.71298139 95.74836455 533.92424653 C96.04826172 549.86111271 92.36087042 558.8545437 81.84936763 570.82903381 C78.67716041 574.55287676 75.86093667 578.53560341 73 582.5 C71.8374974 584.08057557 70.67361688 585.66013944 69.5078125 587.23828125 C67.14656803 590.44263898 64.78741454 593.64852217 62.4296875 596.85546875 C56.50190275 604.91517608 50.54832033 612.95324903 44.53417969 620.94873047 C38.90130619 628.44621522 33.35007597 636.00358278 27.79541016 643.55908203 C25.99410567 646.00801354 24.19079452 648.4554532 22.38671875 650.90234375 C21.79383057 651.70655762 21.20094238 652.51077148 20.59008789 653.33935547 C19.41639109 654.93104372 18.24240592 656.52251937 17.06811523 658.11376953 C14.2693066 661.90893971 11.47985648 665.71029819 8.7109375 669.52734375 C8.19942139 670.23084961 7.68790527 670.93435547 7.16088867 671.65917969 C6.19994981 672.98204299 5.24164915 674.30682793 4.28637695 675.63378906 C3.21507262 677.10706337 2.11117101 678.5565565 1 680 C0.67 680 0.34 680 0 680 C0 455.6 0 231.2 0 0 Z " fill="#FED88B" transform="translate(517,1085)"/>
<path d="M0 0 C1.80440604 0.00215133 3.60881795 0.00119804 5.41322136 -0.0025568 C10.18625289 -0.00411822 14.95802175 0.03604356 19.73075867 0.08571625 C24.23175434 0.12598914 28.73246408 0.12747981 33.23364258 0.13244629 C46.34196002 0.16897817 59.45004933 0.26670714 72.55810547 0.35717773 C116.55123047 0.57374023 116.55123047 0.57374023 161.43310547 0.79467773 C161.43310547 96.82467773 161.43310547 192.85467773 161.43310547 291.79467773 C76.62310547 291.79467773 -8.18689453 291.79467773 -95.56689453 291.79467773 C-95.56689453 275.29467773 -95.56689453 258.79467773 -95.56689453 241.79467773 C-92.26689453 242.78467773 -88.96689453 243.77467773 -85.56689453 244.79467773 C-72.52297052 247.45177337 -62.23561079 246.06609987 -51.19189453 238.79467773 C-28.75426828 222.90720652 -17.0424803 198.40376872 -12.08129883 171.85302734 C-3.55261716 118.55812441 -17.58204719 61.3617012 -35.95947266 11.67285156 C-36.56689453 9.79467773 -36.56689453 9.79467773 -36.56689453 7.79467773 C-24.04861469 2.0655239 -13.70837056 -0.21802005 0 0 Z " fill="#E6E4EF" transform="translate(1095.56689453125,573.205322265625)"/>
<path d="M0 0 C5.61 0 11.22 0 17 0 C17 179.19 17 358.38 17 543 C251.3 543 485.6 543 727 543 C727 363.81 727 184.62 727 0 C732.61 0 738.22 0 744 0 C744 184.47 744 368.94 744 559 C498.48 559 252.96 559 0 559 C0 374.53 0 190.06 0 0 Z " fill="#D6D6D6" transform="translate(628,1085)"/>
<path d="M0 0 C32.34 0 64.68 0 98 0 C98.19850595 29.78437592 98.36464509 59.5683867 98.45958797 89.35324555 C98.47084398 92.87164729 98.48249291 96.39004762 98.49438477 99.90844727 C98.49674556 100.60888094 98.49910635 101.30931462 98.50153869 102.03097356 C98.5406734 113.36416632 98.61161887 124.69694713 98.69437516 136.02989572 C98.77861606 147.66339992 98.82787162 159.29666422 98.84679645 170.93045908 C98.85852818 177.46317951 98.88609131 183.99496644 98.95157051 190.52738762 C99.01272066 196.67783617 99.03149175 202.82696798 99.01796913 208.97769165 C99.02044243 211.2331769 99.03831023 213.48870677 99.07284927 215.74392891 C99.35201615 234.91460171 99.35201615 234.91460171 93.56114197 240.91212463 C89.63482179 244 89.63482179 244 87 244 C86.34 245.32 85.68 246.64 85 248 C84.34 248 83.68 248 83 248 C82.73574219 248.60199219 82.47148438 249.20398437 82.19921875 249.82421875 C80.93411659 252.1195344 79.84230067 253.18597098 77.8125 254.8125 C73.46306405 258.47811238 69.49407762 262.45772393 65.5 266.5 C61.164621 270.87868526 56.83384944 275.14401784 52.109375 279.10546875 C48.36471552 282.46872772 44.88481834 286.11428263 41.39013672 289.73486328 C39.96289226 291.19284708 38.48517612 292.60107348 37 294 C36.34 294 35.68 294 35 294 C35 294.66 35 295.32 35 296 C33.7421875 297.234375 33.7421875 297.234375 31.875 298.75 C27.69090576 302.29382359 23.84852045 306.10179148 20 310 C13.62737052 316.43422116 7.07478365 322.34017308 0 328 C0 219.76 0 111.52 0 0 Z " fill="#FEDB98" transform="translate(1257,1085)"/>
<path d="M0 0 C376.2 0 752.4 0 1140 0 C1140 6.93 1140 13.86 1140 21 C763.8 21 387.6 21 0 21 C0 14.07 0 7.14 0 0 Z " fill="#2A819D" transform="translate(430,1064)"/>
<path d="M0 0 C1.47884553 0.00169414 2.95769609 0.00073914 4.4365387 -0.00265503 C8.43644275 -0.00437171 12.43526022 0.03082354 16.43491244 0.07278872 C20.62021245 0.11037827 24.80553929 0.11382753 28.99098206 0.12094116 C36.90999864 0.13956598 44.82851634 0.18877058 52.74731356 0.2490381 C61.76537152 0.31617719 70.78345372 0.34911078 79.80169952 0.37921071 C98.34667919 0.44187205 116.89119495 0.54736067 135.43579102 0.68115234 C134.50617679 1.83339263 133.56677852 2.9777441 132.62329102 4.11865234 C132.1012207 4.75673828 131.57915039 5.39482422 131.04125977 6.05224609 C129.43579102 7.68115234 129.43579102 7.68115234 126.43579102 8.68115234 C126.10579102 9.67115234 125.77579102 10.66115234 125.43579102 11.68115234 C123.86938477 13.22412109 123.86938477 13.22412109 121.87329102 14.86865234 C117.48793682 18.58955893 113.46080873 22.577521 109.43579102 26.68115234 C104.90481978 31.30061911 100.30367339 35.71377732 95.3996582 39.93554688 C91.46534795 43.43260286 87.85395697 47.26345863 84.19750977 51.04638672 C83.6084082 51.64644531 83.01930664 52.24650391 82.41235352 52.86474609 C81.88722168 53.40671631 81.36208984 53.94868652 80.82104492 54.50708008 C79.43579102 55.68115234 79.43579102 55.68115234 77.43579102 55.68115234 C77.43579102 56.34115234 77.43579102 57.00115234 77.43579102 57.68115234 C75.96704102 59.12646484 75.96704102 59.12646484 73.93579102 60.80615234 C70.9690174 63.32373136 68.16004853 65.90284211 65.43579102 68.68115234 C62.97667007 71.178252 60.48485315 73.54173377 57.81079102 75.80615234 C53.15190435 79.80211443 48.90150942 84.18937615 44.58764648 88.54882812 C40.89053414 92.26990231 37.12753885 95.83274698 33.11547852 99.21630859 C31.33398601 100.76993578 29.70209873 102.41844603 28.06079102 104.11865234 C25.43579102 106.68115234 25.43579102 106.68115234 23.43579102 106.68115234 C23.20118164 107.24189453 22.96657227 107.80263672 22.72485352 108.38037109 C18.78389524 115.4143845 11.27727552 120.95227566 5.18969727 126.14208984 C3.56182899 127.57055332 2.05824691 129.05571004 0.56079102 130.61865234 C-1.56420898 132.68115234 -1.56420898 132.68115234 -3.56420898 132.68115234 C-3.83233398 133.27927734 -4.10045898 133.87740234 -4.37670898 134.49365234 C-5.62902367 136.80054782 -6.48531508 138.0822604 -8.56420898 139.68115234 C-11.26034069 140.05029583 -11.26034069 140.05029583 -14.58158875 140.04191589 C-16.46833817 140.04810188 -16.46833817 140.04810188 -18.39320374 140.05441284 C-19.78964447 140.04379539 -21.18608305 140.03289096 -22.58251953 140.02172852 C-24.05092349 140.02088243 -25.51932872 140.02135703 -26.98773193 140.02305603 C-30.97720727 140.02391813 -34.96641299 140.00625787 -38.95582557 139.98533416 C-43.12384159 139.96660297 -47.29186354 139.96481973 -51.45991516 139.96125793 C-59.35409409 139.95192699 -67.24814865 139.92729905 -75.14227277 139.89720947 C-84.12885273 139.86369807 -93.11543857 139.84718766 -102.10206544 139.83212316 C-120.58951718 139.80075038 -139.07685309 139.74796952 -157.56420898 139.68115234 C-156.43984645 136.30806474 -155.49078166 135.52992137 -152.81420898 133.30615234 C-150.32304552 131.20339609 -147.9365237 129.10535134 -145.68920898 126.74365234 C-143.56420898 124.68115234 -143.56420898 124.68115234 -141.56420898 124.68115234 C-141.29431152 124.08077148 -141.02441406 123.48039062 -140.74633789 122.86181641 C-139.56430316 120.68132607 -138.48097141 119.43558327 -136.65014648 117.79052734 C-136.06177002 117.25371338 -135.47339355 116.71689941 -134.8671875 116.16381836 C-134.23095459 115.59203857 -133.59472168 115.02025879 -132.93920898 114.43115234 C-126.50769395 108.55227817 -120.29804356 102.49623983 -114.1965332 96.27587891 C-110.45262966 92.48234212 -106.58883877 88.92662453 -102.55273438 85.44702148 C-99.21948511 82.48699792 -96.11989042 79.30199954 -93.00170898 76.11865234 C-88.86560829 71.89665133 -84.68598027 67.86368229 -80.16333008 64.05712891 C-77.83392719 62.05277552 -75.7068203 59.88300637 -73.56420898 57.68115234 C-71.00715965 55.07158521 -68.44266823 52.46945488 -65.87670898 49.86865234 C-65.2005957 49.17578125 -64.52448242 48.48291016 -63.82788086 47.76904297 C-62.85625 46.78774414 -62.85625 46.78774414 -61.86499023 45.78662109 C-60.98580933 44.89172974 -60.98580933 44.89172974 -60.08886719 43.97875977 C-58.56420898 42.68115234 -58.56420898 42.68115234 -56.56420898 42.68115234 C-56.56420898 42.02115234 -56.56420898 41.36115234 -56.56420898 40.68115234 C-55.34155273 39.48193359 -55.34155273 39.48193359 -53.50170898 37.99365234 C-49.11600587 34.28026736 -45.0991667 30.26546277 -41.06420898 26.18115234 C-36.53603344 21.60226747 -31.98251276 17.17542463 -27.05639648 13.02099609 C-24.48591121 10.71294256 -22.496167 7.85847418 -20.35577297 5.154562 C-14.60707991 -0.90324955 -7.84536562 -0.12591439 0 0 Z " fill="#FECF9F" transform="translate(1013.564208984375,1659.31884765625)"/>
<path d="M0 0 C0.18698846 18.52380413 0.32800696 37.04741642 0.41449738 55.57196903 C0.45572635 64.17354467 0.51192187 72.77453348 0.60351562 81.37573242 C0.68332313 88.87371495 0.73488192 96.37127248 0.75270796 103.86966795 C0.76312661 107.83927148 0.78755965 111.80765931 0.84584045 115.77687263 C0.90029581 119.51597931 0.91686357 123.25337425 0.90486145 126.99283981 C0.90809915 129.01347995 0.95107422 131.03393507 0.99536133 133.05409241 C0.91620545 141.78385442 0.91620545 141.78385442 -1.75327301 145.32724571 C-3.75332585 147.09004052 -5.76922387 148.54789287 -8 150 C-9.57179272 151.51101187 -11.12721324 153.03948624 -12.65625 154.59375 C-13.45160156 155.39683594 -14.24695312 156.19992187 -15.06640625 157.02734375 C-16.27103516 158.25130859 -16.27103516 158.25130859 -17.5 159.5 C-22.59986842 164.68172827 -27.72233391 169.72618843 -33.24023438 174.46289062 C-35.6095425 176.53241947 -37.80606044 178.74676477 -40 181 C-43.5765771 184.62039428 -47.24102127 188.02924226 -51.11328125 191.328125 C-53.7376693 193.65366969 -56.14723629 196.16742444 -58.5546875 198.71484375 C-60 200 -60 200 -62 200 C-62.26482178 200.59530518 -62.52964355 201.19061035 -62.80249023 201.80395508 C-64.04156119 204.0762167 -65.25229714 205.40706174 -67.16015625 207.13671875 C-67.7847876 207.70986816 -68.40941895 208.28301758 -69.05297852 208.87353516 C-69.71612061 209.47214355 -70.3792627 210.07075195 -71.0625 210.6875 C-72.42835886 211.93740966 -73.7929458 213.18871067 -75.15625 214.44140625 C-75.81753906 215.04871582 -76.47882813 215.65602539 -77.16015625 216.28173828 C-80.20629435 219.12657903 -83.1004885 222.11380591 -85.97265625 225.1328125 C-88.45530208 227.4193341 -91.18089801 229.15221746 -94 231 C-94.16361807 212.60652132 -94.28700787 194.21323184 -94.3626852 175.8191824 C-94.39875969 167.27821443 -94.44792988 158.73769898 -94.52807617 150.19702148 C-94.59790946 142.75177758 -94.64302229 135.30686142 -94.65861946 127.8612991 C-94.66773521 123.91976375 -94.68911295 119.97916589 -94.7401104 116.03793144 C-94.78776028 112.32519278 -94.80225457 108.61377415 -94.79175377 104.90075874 C-94.79458646 102.89448294 -94.83218716 100.88834976 -94.87094116 98.88244629 C-94.79215537 89.02111203 -94.79215537 89.02111203 -90.60902405 84.79408264 C-89.42576495 83.83775672 -88.22407436 82.90349506 -87 82 C-84.29663331 79.30079233 -81.59925875 76.596167 -78.9140625 73.87890625 C-73.44146929 68.35356516 -67.9787476 62.98228967 -62 58 C-59.52077094 55.63608392 -57.267389 53.35188856 -55.1953125 50.625 C-52.8660295 47.83980752 -50.42465418 45.78950207 -47.5625 43.5625 C-44.5300502 41.13733922 -41.99100939 38.98921127 -39.5 36 C-37.16437963 33.19725555 -34.95390094 31.30142477 -32.09765625 29.0625 C-25.59408298 23.79907359 -19.7826565 17.97412838 -13.9375 12 C-12.39340053 10.42818531 -10.84777316 8.85794445 -9.29920959 7.29052734 C-7.91737146 5.89101909 -6.54044547 4.48666565 -5.16381836 3.08203125 C-1.96071764 0 -1.96071764 0 0 0 Z " fill="#FED68B" transform="translate(1483,1198)"/>
<path d="M0 0 C1.10273758 -0.00073013 2.20547516 -0.00146027 3.34162903 -0.00221252 C6.98899406 0.00127276 10.63508443 0.04018123 14.28222656 0.0793457 C16.80999046 0.08867041 19.33776339 0.09578813 21.86553955 0.1007843 C27.84033575 0.11792867 33.81458424 0.15733996 39.78916097 0.20753175 C46.59196153 0.26343948 53.3947841 0.29091517 60.19775724 0.31600893 C74.18970885 0.36825696 88.18125514 0.45619012 102.17285156 0.56762695 C101.22344859 1.6891871 100.27205256 2.80906031 99.31982422 3.92822266 C98.79023102 4.55203323 98.26063782 5.17584381 97.71499634 5.81855774 C95.80383786 7.98615479 93.73696777 9.87068156 91.54785156 11.75512695 C86.8448463 15.88633826 82.44395675 20.24791817 78.10791016 24.7578125 C76.83220551 26.06389107 75.50636237 27.32062555 74.17285156 28.56762695 C73.51285156 28.56762695 72.85285156 28.56762695 72.17285156 28.56762695 C72.17285156 29.22762695 72.17285156 29.88762695 72.17285156 30.56762695 C71.51285156 30.56762695 70.85285156 30.56762695 70.17285156 30.56762695 C70.17285156 31.22762695 70.17285156 31.88762695 70.17285156 32.56762695 C69.51285156 32.56762695 68.85285156 32.56762695 68.17285156 32.56762695 C68.17285156 33.22762695 68.17285156 33.88762695 68.17285156 34.56762695 C66.80957031 35.9074707 66.80957031 35.9074707 64.86035156 37.50512695 C61.26674524 40.55077203 57.91126829 43.77357999 54.61035156 47.13012695 C51.08667567 50.70328759 47.49912211 54.10996539 43.64160156 57.3215332 C41.34561921 59.2694544 39.27602578 61.41437716 37.17285156 63.56762695 C35.73877907 65.0293309 34.30089943 66.48730424 32.86035156 67.94262695 C32.16296875 68.65161133 31.46558594 69.3605957 30.74707031 70.09106445 C28.70758012 72.053184 26.64356359 73.89616722 24.49707031 75.7355957 C18.57555495 80.87390046 13.18336911 86.54768941 7.71191406 92.15551758 C6.89722656 92.98116211 6.08253906 93.80680664 5.24316406 94.6574707 C4.50855957 95.40891357 3.77395508 96.16035645 3.01708984 96.93457031 C1.17285156 98.56762695 1.17285156 98.56762695 -0.82714844 98.56762695 C-0.82714844 99.22762695 -0.82714844 99.88762695 -0.82714844 100.56762695 C-2.28808594 102.07543945 -2.28808594 102.07543945 -4.20214844 103.69262695 C-4.82863281 104.23145508 -5.45511719 104.7702832 -6.10058594 105.32543945 C-7.82714844 106.56762695 -7.82714844 106.56762695 -9.82714844 106.56762695 C-10.07207031 107.13868164 -10.31699219 107.70973633 -10.56933594 108.2980957 C-14.18504388 114.82209046 -21.01777084 119.80050654 -26.63964844 124.5949707 C-29.95610378 127.58570275 -33.0573131 130.78913956 -36.14697266 134.01245117 C-37.33755639 135.2338148 -38.57876231 136.40540889 -39.82714844 137.56762695 C-40.48714844 137.56762695 -41.14714844 137.56762695 -41.82714844 137.56762695 C-41.82714844 138.22762695 -41.82714844 138.88762695 -41.82714844 139.56762695 C-65.25714844 139.56762695 -88.68714844 139.56762695 -112.82714844 139.56762695 C-110.11152639 134.81528836 -107.77257057 131.01065149 -104.45214844 126.81762695 C-100.23235554 121.42708909 -96.12931251 115.9602281 -92.07714844 110.44262695 C-91.48498535 109.63664062 -90.89282227 108.8306543 -90.28271484 108.00024414 C-89.0686472 106.34686496 -87.85494516 104.69321725 -86.64160156 103.03930664 C-83.70909098 99.04458958 -80.76778183 95.05636607 -77.82714844 91.06762695 C-76.66043733 89.48432637 -75.49377071 87.90099299 -74.32714844 86.31762695 C-62.66048177 70.48429362 -50.9938151 54.65096029 -39.32714844 38.81762695 C-38.45968994 37.64031006 -38.45968994 37.64031006 -37.57470703 36.43920898 C-36.41631182 34.86717055 -35.2577847 33.2952293 -34.09912109 31.72338867 C-31.0547728 27.59305984 -28.01321547 23.46071267 -24.97558594 19.32543945 C-24.34394531 18.4662793 -23.71230469 17.60711914 -23.06152344 16.72192383 C-21.85494426 15.08062128 -20.64916694 13.43872884 -19.44433594 11.79614258 C-18.89777344 11.05299805 -18.35121094 10.30985352 -17.78808594 9.54418945 C-17.31161621 8.89530762 -16.83514648 8.24642578 -16.34423828 7.57788086 C-15.84359863 6.91449707 -15.34295898 6.25111328 -14.82714844 5.56762695 C-14.3591684 4.71287277 -13.89118835 3.85811859 -13.4090271 2.97746277 C-9.3686926 -0.79364504 -5.33426568 -0.09200342 0 0 Z " fill="#FECF9F" transform="translate(646.8271484375,1659.432373046875)"/>
<path d="M0 0 C10.89 0 21.78 0 33 0 C33 119.79 33 239.58 33 363 C22.11 363.33 11.22 363.66 0 364 C0 243.88 0 123.76 0 0 Z " fill="#FAFAFA" transform="translate(1483,1147)"/>
<path d="M0 0 C10.89 0 21.78 0 33 0 C33 119.79 33 239.58 33 363 C22.11 363 11.22 363 0 363 C0 243.21 0 123.42 0 0 Z " fill="#FAFAFA" transform="translate(484,1147)"/>
<path d="M0 0 C169.62 0 339.24 0 514 0 C514 6.93 514 13.86 514 21 C344.38 21 174.76 21 0 21 C0 14.07 0 7.14 0 0 Z " fill="#BCBBC1" transform="translate(743,1085)"/>
<path d="M0 0 C5.61 0 11.22 0 17 0 C17 184.14 17 368.28 17 558 C54.95 558 92.9 558 132 558 C132 558.33 132 558.66 132 559 C88.44 559 44.88 559 0 559 C0 374.53 0 190.06 0 0 Z " fill="#BEBEBE" transform="translate(628,1085)"/>
<path d="M0 0 C5.61 0 11.22 0 17 0 C17 184.47 17 368.94 17 559 C11.39 559 5.78 559 0 559 C0 374.53 0 190.06 0 0 Z " fill="#C8C8C8" transform="translate(1355,1085)"/>
<path d="M0 0 C3.24087703 1.37681757 4.88746202 2.79444125 6.92578125 5.6484375 C7.4671875 6.39609375 8.00859375 7.14375 8.56640625 7.9140625 C9.14261719 8.72617188 9.71882813 9.53828125 10.3125 10.375 C11.56806647 12.11266161 12.82460858 13.84961861 14.08203125 15.5859375 C14.72865723 16.48280273 15.3752832 17.37966797 16.04150391 18.30371094 C19.14343643 22.57418499 22.32198522 26.78601878 25.5 31 C31.54941351 39.04478208 37.54186953 47.12961871 43.5 55.2421875 C45.92727747 58.54674455 48.36611595 61.84237623 50.8125 65.1328125 C51.44019287 65.97900146 52.06788574 66.82519043 52.71459961 67.69702148 C53.9057915 69.30243151 55.09915138 70.90623628 56.29516602 72.50805664 C56.83842529 73.24145264 57.38168457 73.97484863 57.94140625 74.73046875 C58.41263916 75.36364014 58.88387207 75.99681152 59.36938477 76.64916992 C61.70473366 80.01600245 63.8283352 83.52533631 66 87 C14.52 87 -36.96 87 -90 87 C-88.35 85.35 -86.7 83.7 -85 82 C-83.69073512 80.68035301 -82.38211501 79.36006593 -81.07421875 78.0390625 C-79.6120367 76.56765116 -78.1497957 75.0962984 -76.6875 73.625 C-75.96626953 72.89539062 -75.24503906 72.16578125 -74.50195312 71.4140625 C-70.40595094 67.29969259 -66.21504768 63.38479141 -61.81469727 59.59863281 C-58.38052337 56.57334414 -55.27433949 53.23696873 -52.1015625 49.94140625 C-50 48 -50 48 -48 48 C-47.73372803 47.40324463 -47.46745605 46.80648926 -47.19311523 46.19165039 C-45.97042386 43.94567116 -44.79601794 42.63921575 -42.91015625 40.93359375 C-42.29551514 40.37043457 -41.68087402 39.80727539 -41.04760742 39.22705078 C-40.39252197 38.63649902 -39.73743652 38.04594727 -39.0625 37.4375 C-33.21422899 32.09167714 -27.57275932 26.61807918 -22.07421875 20.9140625 C-20 19 -20 19 -18 19 C-17.61146851 18.11574341 -17.61146851 18.11574341 -17.21508789 17.21362305 C-15.90982985 14.83572981 -14.55445081 13.40698762 -12.55859375 11.58203125 C-11.89279297 10.96779297 -11.22699219 10.35355469 -10.54101562 9.72070312 C-9.84685547 9.09099609 -9.15269531 8.46128906 -8.4375 7.8125 C-7.73947266 7.17119141 -7.04144531 6.52988281 -6.32226562 5.86914062 C-5.03688079 4.68848161 -3.74926087 3.51024821 -2.45874023 2.33520508 C-1.62495938 1.57203395 -0.79925612 0.79925612 0 0 Z " fill="#FED1A0" transform="translate(1400,1712)"/>
<path d="M0 0 C1.84499139 0.03523703 3.69004926 0.06715372 5.53515625 0.09570312 C9.98346464 0.17157148 14.42845954 0.29163296 18.875 0.4375 C16.69900509 2.61349491 15.21627559 3.22649202 12.3671875 4.3125 C11.46226563 4.65796875 10.55734375 5.0034375 9.625 5.359375 C8.67625 5.71515625 7.7275 6.0709375 6.75 6.4375 C5.82445312 6.79328125 4.89890625 7.1490625 3.9453125 7.515625 C-1.36399706 9.52536365 -6.58710616 11.18658751 -12.125 12.4375 C-11.77308594 13.62859375 -11.42117188 14.8196875 -11.05859375 16.046875 C-2.9542708 43.77511791 4.09969942 71.77183629 7.875 100.4375 C8.04708984 101.65284424 8.21917969 102.86818848 8.39648438 104.12036133 C9.80317171 114.51571042 10.1865168 124.76431079 10.13574219 135.24829102 C10.12502233 137.86953927 10.13571191 140.4901004 10.1484375 143.11132812 C10.17893456 178.79289157 3.12171145 214.11722816 -22.32421875 240.73828125 C-29.14265616 247.2636949 -36.92697322 251.87553922 -45.125 256.4375 C-45.75937988 256.7986792 -46.39375977 257.1598584 -47.04736328 257.53198242 C-55.0029974 260.99936749 -68.75412905 259.32937965 -76.8125 256.875 C-83.96620216 253.99507119 -90.71571184 249.86125527 -95.125 243.4375 C-94.25359375 243.581875 -93.3821875 243.72625 -92.484375 243.875 C-76.59894872 246.35065085 -65.48138324 246.74417253 -52.0715332 237.24902344 C-30.0929846 220.99522447 -18.49928429 195.61586459 -14.25 169.0625 C-7.00206789 116.20389492 -20.28931823 60.60120986 -38.51757812 11.31567383 C-39.125 9.4375 -39.125 9.4375 -39.125 7.4375 C-25.76742167 1.09964245 -14.68056746 -0.49667067 0 0 Z " fill="#D0CEDC" transform="translate(1098.125,573.5625)"/>
<path d="M0 0 C1.38058594 0.77923828 1.38058594 0.77923828 2.7890625 1.57421875 C25.04050246 13.92459821 45.90048916 16.5049568 71 17 C71.23143748 23.73891499 70.49707825 29.59299468 68.875 36.125 C68.65126709 37.03862305 68.42753418 37.95224609 68.19702148 38.89355469 C63.81484415 56.12035721 57.40757768 71.21485322 41.8125 81 C32.13580412 83.53814974 22.78742375 82.80535983 14 78 C6.45606078 73.54221773 2.82540864 64.63948407 0.54296875 56.51953125 C-1.13935071 48.71308484 -1.15371471 41.15942252 -1.125 33.1875 C-1.12306641 31.90335205 -1.12113281 30.6192041 -1.11914062 29.29614258 C-1.07488566 19.50288868 -0.73203408 9.76481169 0 0 Z " fill="#FED6B7" transform="translate(982,726)"/>
<path d="M0 0 C32.34 0 64.68 0 98 0 C98 0.33 98 0.66 98 1 C95.36 1 92.72 1 90 1 C90 1.66 90 2.32 90 3 C88.56640625 4.41015625 88.56640625 4.41015625 86.5625 6.0625 C82.41038212 9.57070655 78.64192767 13.35450405 74.8828125 17.27734375 C73 19 73 19 71 19 C70.505 20.485 70.505 20.485 70 22 C68.45117188 23.52539062 68.45117188 23.52539062 66.46875 25.15625 C61.89351626 29.0382665 57.70205736 33.22140243 53.5 37.5 C49.49183809 41.58117032 45.50537907 45.6235174 41.15625 49.34375 C35.81978333 53.9351053 30.93870953 58.99078544 26 64 C19.85602746 70.23168391 13.68769986 76.34608581 7 82 C4.69 83.98 2.38 85.96 0 88 C0 58.96 0 29.92 0 0 Z " fill="#FED681" transform="translate(1257,1085)"/>
<path d="M0 0 C0 43.23 0 86.46 0 131 C-5.62358277 125.37641723 -5.62358277 125.37641723 -8.05859375 122.0234375 C-8.60193359 121.28029297 -9.14527344 120.53714844 -9.70507812 119.77148438 C-10.27677734 118.98064453 -10.84847656 118.18980469 -11.4375 117.375 C-12.6860831 115.66397871 -13.93478431 113.9530436 -15.18359375 112.2421875 C-15.81765137 111.37045898 -16.45170898 110.49873047 -17.10498047 109.60058594 C-20.05320062 105.55466465 -23.02723563 101.52790056 -26 97.5 C-27.16156352 95.92325457 -28.32302146 94.34643135 -29.484375 92.76953125 C-31.86699685 89.5356878 -34.25277377 86.30420254 -36.640625 83.07421875 C-43.51148708 73.77481453 -50.31884192 64.43675093 -57 55 C-56.1875 53.0625 -56.1875 53.0625 -55 51 C-53.515 50.505 -53.515 50.505 -52 50 C-51.67 49.01 -51.34 48.02 -51 47 C-49.43359375 45.45703125 -49.43359375 45.45703125 -47.4375 43.8125 C-43.60614476 40.58173558 -40.11928602 37.13120266 -36.6640625 33.50390625 C-35 32 -35 32 -33 32 C-32.73735352 31.40687012 -32.47470703 30.81374023 -32.20410156 30.20263672 C-30.9403353 27.89085666 -29.67522629 26.52335065 -27.734375 24.7578125 C-27.09113281 24.16613281 -26.44789062 23.57445312 -25.78515625 22.96484375 C-25.11355469 22.35769531 -24.44195313 21.75054688 -23.75 21.125 C-22.43133076 19.92032182 -21.11361154 18.71460285 -19.796875 17.5078125 C-19.15814453 16.92547852 -18.51941406 16.34314453 -17.86132812 15.74316406 C-16.06532282 14.06117588 -14.35041587 12.32368741 -12.640625 10.5546875 C-10 8 -10 8 -8 8 C-8 7.34 -8 6.68 -8 6 C-6.50390625 4.4921875 -6.50390625 4.4921875 -4.5625 2.875 C-3.60537109 2.06675781 -3.60537109 2.06675781 -2.62890625 1.2421875 C-1 0 -1 0 0 0 Z " fill="#FED68B" transform="translate(1483,1634)"/>
<path d="M0 0 C0.33 0.66 0.66 1.32 1 2 C0.37011719 3.86914062 0.37011719 3.86914062 -0.703125 6.15625 C-1.10047852 7.00461426 -1.49783203 7.85297852 -1.90722656 8.72705078 C-2.57189941 10.09966064 -2.57189941 10.09966064 -3.25 11.5 C-3.70600586 12.44472168 -4.16201172 13.38944336 -4.63183594 14.36279297 C-14.85783019 35.16728162 -28.09187691 54.76788368 -44.36474609 71.32958984 C-46.16393056 73.16745489 -47.93444274 75.03101745 -49.70703125 76.89453125 C-72.93477474 101.02552778 -103.04379287 120.55320909 -135 131 C-135.99 131 -136.98 131 -138 131 C-137.5875 132.05832031 -137.175 133.11664062 -136.75 134.20703125 C-126.58285918 160.76268447 -119.71266669 188.15446526 -114.75 216.125 C-114.59885742 216.97545898 -114.44771484 217.82591797 -114.29199219 218.70214844 C-111.83064182 233.24245074 -110.61605948 247.51453334 -110.6875 262.25 C-110.68965515 263.05604675 -110.6918103 263.86209351 -110.69403076 264.69256592 C-110.83526246 297.71710802 -117.81698693 328.95194956 -141.125 353.625 C-145.30894135 357.69744782 -149.669296 361.06973228 -154.5625 364.25 C-155.47443115 364.84288818 -155.47443115 364.84288818 -156.40478516 365.44775391 C-157.89435315 366.37034954 -159.44356914 367.19531466 -161 368 C-161.66 367.67 -162.32 367.34 -163 367 C-162.55011719 366.59652344 -162.10023437 366.19304687 -161.63671875 365.77734375 C-143.4662098 348.62642248 -132.85879337 325.6596909 -126 302 C-125.51273438 300.37578125 -125.51273438 300.37578125 -125.015625 298.71875 C-124.2191955 295.82559793 -123.58497127 292.94325166 -123 290 C-122.86609863 289.38125 -122.73219727 288.7625 -122.59423828 288.125 C-112.18244479 238.65434115 -125.93841445 186.88144439 -144 141 C-144.32484375 140.17387207 -144.6496875 139.34774414 -144.984375 138.49658203 C-146.63191373 134.32101381 -148.30191049 130.15532491 -150 126 C-149.36578125 125.74347656 -148.7315625 125.48695313 -148.078125 125.22265625 C-117.77085468 112.78997768 -89.53217401 97.71734172 -64 77 C-63.01902344 76.22269531 -62.03804687 75.44539062 -61.02734375 74.64453125 C-35.44434003 53.78354844 -15.77153594 28.8526334 0 0 Z " fill="#DC9169" transform="translate(1197,450)"/>
<path d="M0 0 C4.60035453 0.15904225 9.20306506 0.2165177 13.80540466 0.29189301 C20.73101304 0.4162597 27.64165605 0.66576666 34.5680542 0.89263916 C34.5680542 10.46263916 34.5680542 20.03263916 34.5680542 29.89263916 C24.32562142 29.91548447 14.08320633 29.93372109 3.84075356 29.94445133 C-0.91828758 29.94960849 -5.67730998 29.95657085 -10.43634033 29.96807861 C-31.45867529 30.01761923 -52.432505 30.00756584 -73.4319458 28.89263916 C-71.0980165 26.47166577 -68.86761079 24.35253957 -66.0256958 22.55279541 C-65.40736877 22.15892639 -64.78904175 21.76505737 -64.15197754 21.35925293 C-62.6907072 20.4350365 -61.22351287 19.52010998 -59.75012207 18.61534119 C-55.72507236 16.11544264 -51.95202236 13.56998678 -48.35089111 10.4854126 C-33.46591426 -1.65201039 -18.17366841 -0.69662913 0 0 Z " fill="#3E97BB" transform="translate(708.4319458007813,836.1073608398438)"/>
<path d="M0 0 C15.79841434 -0.60163214 15.79841434 -0.60163214 22.69335938 -0.73242188 C27.34475026 -0.82108197 31.99159417 -0.92418925 36.6394043 -1.1315918 C57.259838 -2.02720567 70.97517151 -0.66678001 87.56272888 13.05297852 C91.64193814 16.31166731 96.04375316 19.06441787 100.4375 21.875 C102.98975474 23.54649134 105.50186739 25.24725278 108 27 C108 27.33 108 27.66 108 28 C86.06821971 29.16442753 64.15793276 29.12175443 42.20263672 29.06866455 C37.42806451 29.05825547 32.65348664 29.05383009 27.87890625 29.04882812 C18.5859207 29.03824736 9.29296845 29.02072757 0 29 C0 19.43 0 9.86 0 0 Z " fill="#3E97BB" transform="translate(1257,837)"/>
<path d="M0 0 C0.21050041 18.4892126 0.36907497 36.97818115 0.46630955 55.46834469 C0.51266322 64.05425578 0.57582643 72.63942117 0.67895508 81.22485352 C0.76882882 88.71040453 0.82676321 96.19541539 0.84679645 103.68149096 C0.85850263 107.64347863 0.88589107 111.60392146 0.95157051 115.56541252 C1.01297775 119.29972095 1.03144373 123.03185906 1.01796913 126.76662445 C1.02159951 128.77978313 1.06987275 130.79270887 1.11978149 132.80525208 C1.05352845 139.31487679 0.56284076 143.23129022 -4.06385803 148.0092926 C-5.67130498 149.38512657 -7.31723211 150.71738664 -9 152 C-9.78372199 152.6198474 -10.56744398 153.23969481 -11.37491512 153.87832546 C-13.22157821 155.30003165 -15.08646175 156.67042983 -17 158 C-17.23396614 139.52811388 -17.41012012 121.05652984 -17.51812172 102.58346748 C-17.56961002 94.00533539 -17.63975949 85.42812577 -17.75439453 76.85058594 C-17.85430461 69.37125 -17.91863728 61.89258227 -17.94088495 54.41259754 C-17.95388386 50.45432895 -17.98425955 46.49797132 -18.05730057 42.54031754 C-18.12561317 38.80833423 -18.14603371 35.0790324 -18.13107681 31.34648323 C-18.13510396 29.33702838 -18.18870068 27.32786036 -18.24420166 25.31916809 C-18.1635807 18.18191002 -17.25262821 14.46520026 -12.15170288 9.30392456 C-10.46407148 7.83457431 -8.74906282 6.39566084 -7 5 C-6.35620707 4.43427843 -5.71241413 3.86855686 -5.04911232 3.28569221 C-1.29545011 0 -1.29545011 0 0 0 Z " fill="#BEBEBE" transform="translate(1372,1304)"/>
<path d="M0 0 C11.22 0 22.44 0 34 0 C34 20.46 34 40.92 34 62 C22.78 62 11.56 62 0 62 C0 41.54 0 21.08 0 0 Z " fill="#CFCFCE" transform="translate(1483,1085)"/>
<path d="M0 0 C11.22 0 22.44 0 34 0 C34 20.46 34 40.92 34 62 C22.78 62 11.56 62 0 62 C0 41.54 0 21.08 0 0 Z " fill="#CFCFCE" transform="translate(483,1085)"/>
<path d="M0 0 C0.33 0 0.66 0 1 0 C0.44492457 7.21009447 -0.73212074 14.12790846 -2.29296875 21.18359375 C-2.51948624 22.22838898 -2.74600372 23.2731842 -2.97938538 24.34963989 C-3.71010144 27.71344461 -4.44870603 31.07546116 -5.1875 34.4375 C-5.69479495 36.76609471 -6.20162905 39.09478987 -6.70800781 41.42358398 C-9.187845 52.81088231 -11.69993863 64.19072686 -14.25 75.5625 C-19.62663828 99.54616769 -24.35208942 123.67318164 -29.15087891 147.77758789 C-30.77497858 155.92819504 -32.41660696 164.07363354 -34.13354492 172.20532227 C-34.91666006 175.91434164 -35.68482751 179.62633652 -36.44873047 183.33935547 C-36.82485396 185.15467604 -37.20694918 186.96876702 -37.59423828 188.78173828 C-45.06538534 224.01158707 -35.77779981 253.82249035 -25.84765625 287.65234375 C-23.79553845 294.64573119 -21.90577738 301.67940937 -20.02246094 308.71972656 C-18.44903519 314.53590032 -16.67494676 320.2078877 -14.56640625 325.85546875 C-14 328 -14 328 -15 331 C-22.0371458 312.21519862 -29.00015643 293.41789811 -35.3125 274.375 C-35.5465152 273.67013458 -35.7805304 272.96526917 -36.02163696 272.23904419 C-39.76641617 260.93433534 -39.76641617 260.93433534 -41 256 C-101.39 255.67 -161.78 255.34 -224 255 C-224 254.67 -224 254.34 -224 254 C-163.94 254 -103.88 254 -42 254 C-44.64 244.1 -47.28 234.2 -50 224 C-50 209.37232525 -50 209.37232525 -48.828125 204.5703125 C-48.44914062 202.97509766 -48.44914062 202.97509766 -48.0625 201.34765625 C-47.794375 200.28417969 -47.52625 199.22070312 -47.25 198.125 C-46.99734375 197.06925781 -46.7446875 196.01351562 -46.484375 194.92578125 C-45.08234952 189.12840588 -43.56532943 183.36671873 -42.0078125 177.609375 C-40.0076713 170.15665001 -38.28751205 162.6591782 -36.625 155.125 C-36.01154383 152.3731518 -35.39490987 149.62202225 -34.77734375 146.87109375 C-34.62503799 146.19220596 -34.47273224 145.51331818 -34.31581116 144.81385803 C-32.53817085 136.91264236 -30.63694148 129.0427421 -28.73046875 121.171875 C-27.34188397 115.43608742 -25.97485991 109.69536662 -24.61328125 103.953125 C-23.74227368 100.28122955 -22.87121417 96.60934644 -22 92.9375 C-21.78115143 92.01510529 -21.56230286 91.09271057 -21.33682251 90.1423645 C-18.91715922 79.95193482 -16.46826528 69.77291646 -13.875 59.625 C-10.91497853 48.02158848 -8.35864508 36.32896136 -5.80224609 24.63134766 C-3.99724395 16.38541713 -2.1146014 8.17369067 0 0 Z " fill="#FED7B7" transform="translate(967,320)"/>
<path d="M0 0 C8.49364012 -0.2100102 16.98616769 -0.36917662 25.48177528 -0.46630955 C29.42824653 -0.51296784 33.37292171 -0.5760736 37.31835938 -0.67895508 C41.13758915 -0.77790404 44.95511004 -0.83079236 48.77552414 -0.85389519 C50.22117354 -0.87032254 51.66674619 -0.90239551 53.11165237 -0.95157051 C64.69253267 -1.32945296 72.1506026 1.7924196 81 9 C81 9.33 81 9.66 81 10 C54.27 10 27.54 10 0 10 C0 6.7 0 3.4 0 0 Z " fill="#2A819C" transform="translate(1257,855)"/>
<path d="M0 0 C1.48784662 0.0112146 2.97571567 0.01974407 4.46359253 0.02572632 C8.34719884 0.04844781 12.22942169 0.10722017 16.11248779 0.1739502 C20.0878224 0.23573821 24.06338435 0.26281851 28.0390625 0.29296875 C35.81572944 0.3569855 43.59126338 0.45915457 51.3671875 0.5859375 C51.3671875 3.8859375 51.3671875 7.1859375 51.3671875 10.5859375 C24.6371875 10.5859375 -2.0928125 10.5859375 -29.6328125 10.5859375 C-20.40101848 1.35414348 -12.7047654 -0.28396196 0 0 Z " fill="#29819C" transform="translate(691.6328125,854.4140625)"/>
<path d="M0 0 C11.22 0 22.44 0 34 0 C34 6.93 34 13.86 34 21 C22.78 21 11.56 21 0 21 C0 14.07 0 7.14 0 0 Z " fill="#BDBDBD" transform="translate(1483,1085)"/>
<path d="M0 0 C11.22 0 22.44 0 34 0 C34 6.93 34 13.86 34 21 C22.78 21 11.56 21 0 21 C0 14.07 0 7.14 0 0 Z " fill="#BDBDBD" transform="translate(483,1085)"/>
<path d="M0 0 C3.94291543 1.2640523 7.71303073 2.704904 11.5 4.375 C24.2963719 9.76126862 36.65741193 12.01559995 50.4375 12.5625 C51.45521484 12.60568359 52.47292969 12.64886719 53.52148438 12.69335938 C56.01421028 12.79868582 58.50702338 12.90081672 61 13 C54.85696237 20.61777774 54.85696237 20.61777774 50.875 22.375 C50.23304687 22.67148437 49.59109375 22.96796875 48.9296875 23.2734375 C38.26947569 27.28720146 26.21925717 25.43839051 16 21 C7.38677832 16.03833832 2.59768483 9.50372499 0 0 Z " fill="#FEE1CB" transform="translate(987,730)"/>
<path d="M0 0 C1.32 0.33 2.64 0.66 4 1 C3.34 1.66 2.68 2.32 2 3 C1.79915085 5.97559397 1.72589954 8.85855085 1.73828697 11.83564949 C1.73429091 12.76656271 1.73029485 13.69747592 1.72617769 14.65659863 C1.71511013 17.81133008 1.71841775 20.96588885 1.7215271 24.12063599 C1.71652952 26.39100434 1.71065533 28.6613709 1.70397437 30.93173492 C1.68809522 37.19809082 1.68473936 43.464402 1.68332577 49.73077559 C1.68002294 55.78587723 1.66737749 61.84095437 1.6549259 67.89604229 C1.62977026 80.28709541 1.61392814 92.67814425 1.60334396 105.06921768 C1.59282991 117.34277393 1.57820703 129.61631388 1.55806351 141.88985825 C1.55681464 142.6522115 1.55556577 143.41456475 1.55427906 144.20001961 C1.54791555 148.07142649 1.54147831 151.94283325 1.53501268 155.81423996 C1.48931681 183.25489497 1.45288341 210.69555527 1.421875 238.13623047 C1.3917245 264.79899877 1.35739225 291.46175631 1.31738281 318.12451172 C1.31615181 318.94597942 1.31492081 319.76744712 1.3136525 320.61380778 C1.30128594 328.86311861 1.28883419 337.11242932 1.27632002 345.36173993 C1.25082781 362.16741858 1.22590428 378.97309807 1.20132446 395.77877808 C1.20019355 396.5515224 1.19906264 397.32426673 1.19789747 398.12042755 C1.12240742 449.74693927 1.06021621 501.37346847 1 553 C0.67 553 0.34 553 0 553 C0 370.51 0 188.02 0 0 Z " fill="#E5D6C0" transform="translate(611,1085)"/>
<path d="M0 0 C14.77322575 2.57945211 29.02085101 7.6064086 43.3125 12.0625 C43.99741516 12.27592041 44.68233032 12.48934082 45.38800049 12.70922852 C53.95615912 15.38218027 62.49743435 18.12376415 71 21 C71 21.33 71 21.66 71 22 C47.10469975 22.71190661 21.37833465 10.5564541 0 1 C0 0.67 0 0.34 0 0 Z " fill="#DF946C" transform="translate(952,614)"/>
<path d="M0 0 C0.46148438 0.35191406 0.92296875 0.70382812 1.3984375 1.06640625 C3.589065 2.72452944 5.79306832 4.3636409 8 6 C8.78246094 6.5878125 9.56492187 7.175625 10.37109375 7.78125 C16.27975694 12.09221066 22.17651857 15.3636549 29 18 C29.94359375 18.38285156 30.8871875 18.76570312 31.859375 19.16015625 C44.09472767 23.40600624 57.19013857 22.83921836 70 23 C64.56448066 26.32653453 58.09611513 25.32776677 51.9375 25.3125 C50.66455078 25.32861328 49.39160156 25.34472656 48.08007812 25.36132812 C30.98970111 25.37010593 17.74712342 20.12283882 5.27734375 8.3671875 C0 2.88164666 0 2.88164666 0 0 Z " fill="#DF956C" transform="translate(953,623)"/>
<path d="M0 0 C13.50841513 -0.94062465 23.21054226 3.73043645 33.5625 12.0625 C35.37959475 14.51162771 35.33116121 16.01954909 35 19 C30.35561614 19 29.98744551 18.46368164 26.6875 15.5 C22.43577597 11.94952614 18.12400647 9.20207468 13.25 6.625 C12.62440186 6.29177734 11.99880371 5.95855469 11.35424805 5.61523438 C7.65730567 3.70270118 3.98082472 2.20890076 0 1 C0 0.67 0 0.34 0 0 Z " fill="#DD926A" transform="translate(890,482)"/>
<path d="M0 0 C5.71501969 1.42875492 9.54913765 4.31591988 14 8 C14.62003906 8.47695313 15.24007812 8.95390625 15.87890625 9.4453125 C17.5625 10.875 17.5625 10.875 20 14 C20.19808766 16.95525373 19.70662134 19.07256874 19 22 C15.17239084 20.72413028 14.85390227 19.44156916 12.875 16 C9.71809023 10.82185677 6.13317708 6.81777215 1.72265625 2.6796875 C1.15417969 2.12539063 0.58570313 1.57109375 0 1 C0 0.67 0 0.34 0 0 Z " fill="#DE936B" transform="translate(909,466)"/>
<path d="M0 0 C0 1.98 0 3.96 0 6 C-2.64 6 -5.28 6 -8 6 C-8 4.35 -8 2.7 -8 1 C-5.07175348 0.02391783 -3.04386724 -0.08226668 0 0 Z " fill="#FEB224" transform="translate(1218,1939)"/>
<path d="M0 0 C3 0.75 3 0.75 6 2.75 C1.83861737 2.83159574 -1.9472484 2.73248524 -6 1.75 C-3 -0.25 -3 -0.25 0 0 Z " fill="#E59C74" transform="translate(1017,633.25)"/>
</svg>
